# xmcd
#
# Track frame offsets:
#	150
#	17251
#	35358
#	51925
#	69740
#	88770
#	104014
#	117850
#	133898
#	148714
#	163311
#	178433
#	193210
#
# Disc length: 2760
#
# Revision: 1
# Processed by: cddbd v1.5.1PL0 Copyright (c) Steve Scherf et al.
# Submitted via: VisiTrax 2.9.5.180 - For more info visit www.synapsa.com
# Normalized: r0:DSETVAR1
#
DISCID=c80ac60d
DTITLE=Various Artist - CDX 245 July 2000
DYEAR=2000
DGENRE=
TTITLE0=Marc Corey Lee - Memphis Rain
TTITLE1=Sonya Isaacs - Barefoot in the grass
TTITLE2=Billy Swan - Blue moon of Kentucky
TTITLE3=Neal McCoy - Every man for himself
TTITLE4=Paul Craft - Hey girls..this is Earl..I didn't die
TTITLE5=Clay Davidson - I can't lie to me
TTITLE6=Trace Adkins - I'm gonna love you anyway
TTITLE7=Chalee Tennison - Makin' up with you
TTITLE8=Chuck Wagon and The Wheel - Play that country music cowboy
TTITLE9=Ricochet - She's gone
TTITLE10=Tracy Byrd - Take me with you when you go
TTITLE11=4 Sisters and A Cousin - Tell me I'm wrong
TTITLE12=Jason Parchert - You were
EXTD=
EXTT0=
EXTT1=
EXTT2=
EXTT3=
EXTT4=
EXTT5=
EXTT6=
EXTT7=
EXTT8=
EXTT9=
EXTT10=
EXTT11=
EXTT12=
PLAYORDER=
